<svg width="960" height="600" viewBox="0 0 960 600" xmlns="http://www.w3.org/2000/svg" role="img" aria-label="证据时间轴整理演示动画">
  <rect width="960" height="600" fill="#e8e2d5"/>
  <rect x="52" y="54" width="856" height="492" fill="#f7f5ef" stroke="#c8bfae"/>
  <text x="82" y="105" fill="#173e36" font-family="Arial, sans-serif" font-size="28" font-weight="700">Evidence Timeline Demo</text>
  <g font-family="Arial, sans-serif">
    <rect x="82" y="148" width="205" height="320" rx="8" fill="#ffffff" stroke="#d8d0c1"/>
    <text x="112" y="190" fill="#65706b" font-size="18">Sample Images</text>
    <rect x="112" y="220" width="145" height="62" fill="#dce7e0"/>
    <rect x="112" y="300" width="145" height="62" fill="#eaded8"/>
    <rect x="112" y="380" width="145" height="62" fill="#f2e5cd"/>
    <rect x="378" y="148" width="205" height="320" rx="8" fill="#ffffff" stroke="#d8d0c1"/>
    <text x="415" y="190" fill="#65706b" font-size="18">OCR + Dates</text>
    <line x1="418" y1="236" x2="540" y2="236" stroke="#173e36" stroke-width="8"/>
    <line x1="418" y1="296" x2="520" y2="296" stroke="#d4ad62" stroke-width="8"/>
    <line x1="418" y1="356" x2="555" y2="356" stroke="#a94d3b" stroke-width="8"/>
    <rect x="674" y="148" width="205" height="320" rx="8" fill="#ffffff" stroke="#d8d0c1"/>
    <text x="710" y="190" fill="#65706b" font-size="18">Word Report</text>
    <line x1="720" y1="238" x2="835" y2="238" stroke="#173e36" stroke-width="7"/>
    <line x1="720" y1="288" x2="820" y2="288" stroke="#173e36" stroke-width="7"/>
    <line x1="720" y1="338" x2="848" y2="338" stroke="#173e36" stroke-width="7"/>
  </g>
  <circle r="15" fill="#d4ad62">
    <animateMotion dur="3.2s" repeatCount="indefinite" path="M292 306 L368 306 L592 306 L666 306"/>
  </circle>
  <text x="82" y="510" fill="#65706b" font-family="Arial, sans-serif" font-size="18">Fictional / Redacted data only</text>
</svg>
