<svg width="960" height="600" viewBox="0 0 960 600" xmlns="http://www.w3.org/2000/svg" role="img" aria-label="加班费核算演示动画">
  <rect width="960" height="600" fill="#e8e2d5"/>
  <rect x="52" y="54" width="856" height="492" fill="#f7f5ef" stroke="#c8bfae"/>
  <text x="82" y="105" fill="#173e36" font-family="Arial, sans-serif" font-size="28" font-weight="700">Overtime Calculation Demo</text>
  <g font-family="Arial, sans-serif">
    <rect x="86" y="150" width="228" height="315" rx="8" fill="#ffffff" stroke="#d8d0c1"/>
    <text x="118" y="190" fill="#65706b" font-size="18">Sample Timesheet</text>
    <g stroke="#d8d0c1"><line x1="118" y1="230" x2="282" y2="230"/><line x1="118" y1="280" x2="282" y2="280"/><line x1="118" y1="330" x2="282" y2="330"/><line x1="118" y1="380" x2="282" y2="380"/></g>
    <rect x="366" y="150" width="228" height="315" rx="8" fill="#ffffff" stroke="#d8d0c1"/>
    <text x="406" y="190" fill="#65706b" font-size="18">Rules + Formula</text>
    <text x="415" y="270" fill="#173e36" font-size="34" font-weight="700">150%</text>
    <text x="415" y="335" fill="#d4ad62" font-size="34" font-weight="700">200%</text>
    <text x="415" y="400" fill="#a94d3b" font-size="34" font-weight="700">300%</text>
    <rect x="646" y="150" width="228" height="315" rx="8" fill="#ffffff" stroke="#d8d0c1"/>
    <text x="700" y="190" fill="#65706b" font-size="18">Report</text>
    <line x1="690" y1="250" x2="832" y2="250" stroke="#173e36" stroke-width="8"/>
    <line x1="690" y1="310" x2="805" y2="310" stroke="#173e36" stroke-width="8"/>
    <line x1="690" y1="370" x2="845" y2="370" stroke="#173e36" stroke-width="8"/>
  </g>
  <circle r="15" fill="#d4ad62">
    <animateMotion dur="3.2s" repeatCount="indefinite" path="M320 306 L360 306 L600 306 L640 306"/>
  </circle>
  <text x="82" y="510" fill="#65706b" font-family="Arial, sans-serif" font-size="18">Fictional employee data only</text>
</svg>
